<?xml  version="1.0" encoding="UTF-8"?>
<!DOCTYPE svg PUBLIC "-//W3C//DTD SVG 1.0//EN" "http://www.w3.org/TR/2001/REC-SVG-20010904/DTD/svg10.dtd" >
<svg xmlns="http://www.w3.org/2000/svg" >
<metadata>
<version>1.0</version>
<id><![CDATA[Myriad W01 SmBd]]></id>
<vendor>Monotype Imaging Inc.</vendor>
<credits>
<name>Fonts.com WebFonts</name>
<URL>http://webfonts.fonts.com</URL>
<role>Home of the Web fonts</role>
</credits>
<license>
<URL>http://webfonts.fonts.com/Legal</URL>
</license>
<copyright><![CDATA[© 1992, 1994, 1997, 2000, 2004 Adobe Systems Incorporated. All rights reserved.]]></copyright>
<trademark><![CDATA[Myriad is either a registered trademark or a trademark of Adobe Systems Incorporated in the United States and/or other countries.]]></trademark>
<licensee>
<name></name>
</licensee>
</metadata>
<defs >
<font horiz-adv-x="505" id="18915124-98e4-4245-9e10-b921e09a6704">
<font-face font-family="" panose-1="2 11 6 3 3 4 3 2 2 4" ascent="889" descent="-250" units-per-em="1000" alphabetic="0">
</font-face>
<missing-glyph horiz-adv-x="207" />

<glyph unicode="&#xA;" horiz-adv-x="0" />
<glyph unicode="&#xD;" horiz-adv-x="207" />
<glyph unicode=" " horiz-adv-x="207" />
<glyph unicode="!" horiz-adv-x="251" d="M78 208L60 674H190L172 208H78ZM125 -11Q91 -11 70 11T50 67Q50 102 71 123T125 145Q160 145 180 124T201 67Q201 33 181 11T125 -11Z"  />
<glyph unicode="&quot;" horiz-adv-x="370" d="M155 685L135 428H62L42 685H155ZM328 685L308 428H235L215 685H328Z"  />
<glyph unicode="#" horiz-adv-x="526" d="M304 264L321 391H224L207 264H304ZM93 0L119 186H37V264H131L149 391H63V468H160L186 650H261L236 468H333L359 650H434L409 468H490V391H397L380 264H464V187H367L342 0H265L291 187H195L169 0H93Z"  />
<glyph unicode="$" horiz-adv-x="536" d="M222 -86V11Q174 13 131 25T60 55L87 149Q116 132 156 119T243 105Q291 105 320 126T349 184Q349 218 323 241T240 285Q201 299 169 316T115 354T80 402T67 464Q67 529 109 574T228 634V732H310V639Q358 637 391 628T448 606L421 514Q403 522 370 535T285 548Q259 548 241 542T211 526T195 504T190 478Q190 447 218 427T311 380Q395 348 434 305T473 195Q473 163 462 134T430 81T377 41T304 17V-86H222Z"  />
<glyph unicode="%" horiz-adv-x="840" d="M199 661Q277 661 320 609T363 468Q363 417 349 378T312 314T258 275T194 262Q160 262 130 275T78 312T42 373T28 457Q28 503 40 540T76 605T130 646T199 661ZM197 592Q178 592 164 582T141 554T127 512T122 461Q121 404 140 368T197 331Q234 331 252 366T270 462Q270 489 266 512T254 554T231 582T197 592ZM196 -11L573 661H643L266 -11H196ZM647 392Q725 392 768 339T811 198Q811 147 797 109T760 44T707 5T642 -8Q608 -8 578 5T526 43T490 104T477 188Q477 234 489 271T524 336T578 377T647 392ZM645 322Q626 322 612 312T589 284T575 242T570 191Q569 135 588 98T645 61Q683 61 700 96T718 192Q718 219 714 243T702 284T679 312T645 322Z"  />
<glyph unicode="&amp;" horiz-adv-x="645" d="M497 0Q484 13 472 26T444 56Q406 24 359 7T254 -11Q198 -11 156 5T87 47T45 108T31 179Q31 247 67 295T161 374V377Q137 406 122 441T107 512Q107 543 119 574T154 630T213 670T296 685Q332 685 362 675T415 644T450 596T463 534Q463 481 431 438T324 358L323 354Q358 313 394 272T459 200Q481 234 496 279T520 379H630Q616 301 592 238T525 126Q553 95 581 64T641 0H497ZM272 80Q308 80 337 92T385 125Q354 157 310 207T217 312Q205 304 193 293T171 268T155 237T148 199Q148 148 181 114T272 80ZM290 606Q255 606 237 581T218 524Q218 493 231 468T267 416Q310 443 333 469T357 530Q357 557 341 581T290 606Z"  />
<glyph unicode="&apos;" horiz-adv-x="198" d="M155 685L135 428H62L42 685H155Z"  />
<glyph unicode="(" horiz-adv-x="301" d="M273 693Q225 621 193 522T160 286Q160 153 193 54T273 -118H183Q162 -88 140 -49T101 41T73 152T62 286Q62 359 73 420T101 532T140 623T183 693H273Z"  />
<glyph unicode=")" horiz-adv-x="301" d="M28 -118Q76 -46 108 54T140 288Q140 421 108 521T28 693H117Q139 663 160 624T199 534T228 422T239 287Q239 214 228 153T200 42T161 -48T117 -118H28Z"  />
<glyph unicode="*" horiz-adv-x="437" d="M353 642L251 516V514L407 540V454L250 478V475L353 353L276 309L217 457L215 456L154 308L82 353L183 476V479L30 454V540L181 514L182 517L82 641L158 685L216 538H219L277 685L353 642Z"  />
<glyph unicode="+" horiz-adv-x="596" d="M339 532V306H556V228H339V0H257V228H40V306H257V532H339Z"  />
<glyph unicode="&#x2c;" horiz-adv-x="236" d="M8 -121Q18 -93 28 -60T47 8T63 77T75 143L204 153Q193 118 180 81T152 9T122 -57T92 -113L8 -121Z"  />
<glyph unicode="-" horiz-adv-x="315" d="M285 309V224H30V309H285Z"  />
<glyph unicode="." horiz-adv-x="236" d="M127 -11Q93 -11 72 11T51 68Q51 103 72 125T127 147Q161 147 182 125T203 68Q203 34 183 12T127 -11Z"  />
<glyph unicode="/" horiz-adv-x="337" d="M8 -40L252 685H338L94 -40H8Z"  />
<glyph unicode="0" horiz-adv-x="536" d="M272 661Q331 661 374 636T445 567T488 462T502 329Q502 251 487 188T442 81T368 13T265 -11Q209 -11 166 13T94 82T49 187T34 323Q34 399 50 461T96 567T170 636T272 661ZM269 567Q219 567 188 507T158 323Q157 204 187 144T269 83Q323 83 351 146T379 327Q379 441 352 504T269 567Z"  />
<glyph unicode="1" horiz-adv-x="536" d="M236 539H234L115 479L94 572L252 650H355V0H236V539Z"  />
<glyph unicode="2" horiz-adv-x="536" d="M43 0V75L120 146Q177 199 219 241T290 320T332 388T346 452Q346 474 340 493T320 528T284 552T230 561Q187 561 152 544T91 507L55 594Q90 623 141 642T255 661Q309 661 349 645T416 602T456 540T469 464Q469 421 455 382T414 305T352 230T274 153L217 104V102H484V0H43Z"  />
<glyph unicode="3" horiz-adv-x="536" d="M68 127Q77 121 93 114T128 101T170 91T216 87Q251 87 276 96T317 120T340 153T347 191Q347 220 335 240T302 274T255 294T200 301H143V391H198Q219 391 242 396T284 412T315 440T327 482Q327 515 302 539T223 563Q183 563 147 550T90 522L62 611Q90 631 140 646T249 661Q299 661 337 648T400 614T439 563T452 502Q452 451 422 411T332 350V348Q362 343 388 330T433 295T464 247T475 186Q475 145 458 109T409 47T330 5T222 -11Q162 -11 114 3T40 34L68 127Z"  />
<glyph unicode="4" horiz-adv-x="536" d="M314 0V165H20V245L285 650H430V258H514V165H430V0H314ZM314 258V435Q314 463 315 491T318 548H314Q299 517 286 491T257 438L138 260L137 258H314Z"  />
<glyph unicode="5" horiz-adv-x="536" d="M456 548H206L187 418Q198 420 209 420T234 421Q277 421 318 411T392 379Q429 356 453 315T477 214Q477 167 459 127T406 55T323 7T214 -11Q157 -11 113 1T42 27L67 120Q88 109 126 98T210 86Q237 86 262 93T307 116T339 153T351 205Q351 261 308 294T166 328Q139 328 118 327T77 322L120 650H456V548Z"  />
<glyph unicode="6" horiz-adv-x="536" d="M439 563Q425 563 410 563T376 560Q325 554 287 536T222 493T180 436T158 370H161Q185 398 221 415T307 433Q349 433 385 419T448 377T490 310T506 221Q506 174 490 132T443 59T371 8T277 -11Q218 -11 172 10T95 68T48 157T32 269Q32 363 63 437T145 561Q235 645 376 657Q396 659 411 659T438 659L439 563ZM276 81Q324 81 352 118T381 214Q381 271 352 307T268 343Q233 343 205 324T162 276Q154 260 154 237Q155 205 163 177T186 127T223 94T276 81Z"  />
<glyph unicode="7" horiz-adv-x="536" d="M490 650V571L215 0H85L359 546V548H53V650H490Z"  />
<glyph unicode="8" horiz-adv-x="536" d="M265 -11Q208 -11 165 4T93 44T49 101T34 167Q34 228 66 269T156 336V339Q105 364 81 402T57 483Q57 523 73 555T119 611T188 648T274 661Q326 661 364 647T428 609T466 557T478 497Q478 456 455 416T378 350V347Q432 327 467 286T502 183Q502 139 485 104T436 43T361 3T265 -11ZM269 76Q318 76 347 103T377 173Q377 223 344 251T256 295Q210 281 185 252T160 181Q159 160 166 141T188 108T222 85T269 76ZM268 576Q221 576 198 550T174 488Q174 448 203 424T280 386Q313 396 337 421T361 484Q361 501 356 517T339 547T311 568T268 576Z"  />
<glyph unicode="9" horiz-adv-x="536" d="M93 88Q107 86 122 87T161 90Q197 93 231 105T293 140Q358 193 376 284L374 285Q349 257 315 242T232 227Q190 227 154 241T91 283T50 347T35 429Q35 475 52 517T100 591T174 642T270 661Q327 661 370 640T442 582T487 494T502 384Q502 279 471 205T389 82Q346 42 290 20T167 -7Q146 -9 127 -9T93 -9V88ZM264 570Q217 570 187 533T157 436Q158 385 185 351T264 317Q302 317 328 332T369 371Q372 377 374 385T376 406Q376 439 370 468T351 520T316 556T264 570Z"  />
<glyph unicode=":" horiz-adv-x="236" d="M127 326Q93 326 72 348T51 404Q51 439 72 461T127 483Q161 483 181 461T203 404Q203 370 183 348T127 326ZM127 -11Q93 -11 72 11T51 67Q51 102 72 124T127 146Q161 146 181 124T203 67Q203 34 183 12T127 -11Z"  />
<glyph unicode=";" horiz-adv-x="236" d="M8 -121Q18 -93 28 -60T47 8T63 77T75 143L204 153Q193 118 180 81T152 9T122 -57T92 -113L8 -121ZM133 326Q99 326 78 348T58 404Q58 439 79 461T133 483Q167 483 187 461T209 404Q209 370 189 348T133 326Z"  />
<glyph unicode="&lt;" horiz-adv-x="596" d="M61 302L535 532V442L159 267V265L535 89V0L61 230V302Z"  />
<glyph unicode="=" horiz-adv-x="596" d="M40 330V409H556V330H40ZM40 128V206H556V128H40Z"  />
<glyph unicode="&gt;" horiz-adv-x="596" d="M535 228L61 0V89L443 265V267L61 443V532L535 304V228Z"  />
<glyph unicode="?" horiz-adv-x="428" d="M140 206L138 232Q134 271 148 312T198 396Q227 430 244 458T261 515Q261 547 241 566T179 586Q153 586 126 578T79 556L49 644Q76 661 117 673T206 685Q252 685 286 673T343 639T376 591T387 533Q387 506 380 483T360 439T332 399T300 362Q271 327 258 295T247 227L248 206H140ZM191 -11Q157 -11 136 11T115 67Q115 102 136 123T191 145Q225 145 245 124T267 67Q267 34 247 12T191 -11Z"  />
<glyph unicode="@" horiz-adv-x="755" d="M463 355Q455 357 446 359T423 361Q394 361 370 348T327 314T298 263T287 202Q287 171 301 152T343 133Q361 133 377 143T408 170T431 208T445 252L463 355ZM536 -66Q492 -87 450 -95T355 -104Q293 -104 237 -83T139 -21T72 78T47 210Q47 286 73 355T148 477T264 561T417 592Q483 592 537 571T631 511T692 419T714 303Q714 247 700 203T660 129T602 82T530 65Q497 65 474 84T449 147H446Q397 65 312 65Q265 65 233 99T201 193Q201 239 218 281T266 356T340 408T437 428Q470 428 500 422T551 405L519 222Q501 124 546 124Q564 123 582 134T614 167T638 222T648 298Q648 350 633 393T587 469T511 519T408 537Q349 537 296 515T202 451T139 350T115 217Q115 154 134 105T187 22T268 -30T371 -48Q412 -48 450 -40T519 -15L536 -66Z"  />
<glyph unicode="A" horiz-adv-x="636" d="M206 191L148 0H21L237 674H394L613 0H481L420 191H206ZM399 284L346 450Q336 481 328 514T312 576H310Q302 547 295 514T278 450L226 284H399Z"  />
<glyph unicode="B" horiz-adv-x="576" d="M71 665Q100 671 149 675T250 679Q319 679 363 670T443 636Q475 617 494 585T513 510Q513 463 485 424T401 364V362Q428 355 452 342T495 307T525 258T537 195Q537 150 519 115T472 56Q436 24 376 9T222 -7Q171 -7 133 -4T71 2V665ZM193 399H256Q320 399 354 426T389 496Q389 544 356 566T263 588Q236 588 220 587T193 583V399ZM193 89Q217 86 258 86Q288 86 315 92T362 111T395 146T407 199Q407 228 395 249T363 283T314 303T254 309H193V89Z"  />
<glyph unicode="C" horiz-adv-x="588" d="M554 20Q532 9 487 0T380 -10Q300 -10 236 14T128 82T60 189T36 329Q36 412 63 478T139 590T253 660T396 685Q457 685 499 675T560 655L533 557Q509 568 476 575T401 583Q350 583 307 567T232 520T183 442T165 335Q165 279 181 235T227 158T300 109T400 92Q438 92 474 99T534 117L554 20Z"  />
<glyph unicode="D" horiz-adv-x="683" d="M71 665Q112 672 162 675T267 679Q362 679 428 660T542 601Q591 561 619 501T647 353Q647 262 619 196T542 85Q491 39 414 16T237 -7Q183 -7 142 -5T71 2V665ZM194 94Q207 92 225 92T262 91Q383 90 450 155T517 349Q518 461 456 522T278 583Q249 583 228 581T194 576V94Z"  />
<glyph unicode="E" horiz-adv-x="515" d="M448 299H194V101H478V0H71V674H463V573H194V399H448V299Z"  />
<glyph unicode="F" horiz-adv-x="509" d="M71 674H460V573H194V387H442V286H194V0H71V674Z"  />
<glyph unicode="G" horiz-adv-x="666" d="M611 31Q595 25 572 19T520 6T460 -3T394 -7Q224 -7 130 83Q85 126 60 190T36 331Q36 411 63 475T139 586T258 656T411 681Q474 681 520 671T590 649L563 550Q535 562 500 570T410 579Q356 579 311 564T234 517T183 441T165 337Q165 280 182 235T229 158T303 110T399 93Q432 93 456 97T492 107V275H373V372H611V31Z"  />
<glyph unicode="H" horiz-adv-x="672" d="M194 674V404H479V674H602V0H479V297H194V0H71V674H194Z"  />
<glyph unicode="I" horiz-adv-x="264" d="M194 674V0H71V674H194Z"  />
<glyph unicode="J" horiz-adv-x="392" d="M205 674H328V237Q328 167 312 120T267 43T196 2T104 -11Q78 -11 50 -7T1 5L16 104Q31 99 50 96T92 92Q118 92 139 99T174 123T197 168T205 241V674Z"  />
<glyph unicode="K" horiz-adv-x="582" d="M71 674H193V364H196Q208 384 220 402T245 437L421 674H573L341 387L588 0H444L253 309L193 237V0H71V674Z"  />
<glyph unicode="L" horiz-adv-x="493" d="M71 674H194V103H471V0H71V674Z"  />
<glyph unicode="M" horiz-adv-x="827" d="M640 275Q637 341 634 415T632 558H629Q612 496 592 430T549 300L451 8H356L266 296Q246 361 229 428T198 558H196Q194 492 191 416T184 271L169 0H54L99 674H261L349 403Q367 343 382 285T411 169H414Q428 224 444 284T481 404L574 674H734L773 0H653L640 275Z"  />
<glyph unicode="N" horiz-adv-x="676" d="M71 0V674H211L385 385Q419 328 448 271T500 159H502Q496 227 494 294T491 439V674H605V0H478L302 296Q270 352 238 412T181 529L178 528Q182 462 183 394T184 241V0H71Z"  />
<glyph unicode="O" horiz-adv-x="704" d="M356 685Q430 685 488 659T586 587T648 479T669 344Q669 259 645 193T577 82T475 13T346 -11Q275 -11 218 14T120 86T58 195T36 332Q36 410 59 474T125 586T226 659T356 685ZM353 586Q307 586 272 566T214 512T178 432T166 334Q166 283 178 238T215 160T274 107T353 88Q398 88 432 107T490 160T526 240T539 339Q539 387 527 431T492 510T434 565T353 586Z"  />
<glyph unicode="P" horiz-adv-x="559" d="M71 665Q104 671 150 675T259 679Q392 679 458 624Q488 599 506 561T524 475Q524 377 466 322Q429 285 374 268T253 250Q236 250 221 251T193 254V0H71V665ZM193 351Q204 348 219 347T253 346Q322 346 361 378T401 470Q401 527 365 556T264 585Q238 585 221 583T193 579V351Z"  />
<glyph unicode="Q" horiz-adv-x="704" d="M638 -108Q567 -88 503 -67T375 -21Q364 -17 353 -15T331 -11Q272 -8 219 15T125 81T60 186T36 331Q36 409 59 474T124 586T226 659T358 685Q431 685 489 659T587 586T648 478T669 345Q669 284 656 233T619 143T564 77T495 34V30Q539 18 585 8T673 -11L638 -108ZM352 88Q397 88 431 107T490 160T526 240T539 339Q539 387 527 432T492 511T435 565T354 586Q308 586 273 566T214 511T178 431T166 334Q166 283 178 239T214 161T273 108T352 88Z"  />
<glyph unicode="R" horiz-adv-x="569" d="M71 665Q106 671 154 675T257 679Q330 679 380 667T465 625Q493 602 508 568T523 490Q523 457 513 430T486 382T447 345T401 321V318Q437 304 459 271T495 188Q503 156 510 127T524 72T537 29T548 0H421Q413 15 402 55T376 159Q369 192 359 214T335 250T301 270T255 277H193V0H71V665ZM193 367H266Q329 367 365 397T401 478Q401 534 365 560T269 586Q240 586 221 584T193 580V367Z"  />
<glyph unicode="S" horiz-adv-x="519" d="M68 134Q98 117 140 104T231 91Q291 91 322 116T354 183Q354 221 327 246T234 295Q150 325 101 371T52 491Q52 532 68 567T116 629T191 670T290 685Q345 685 385 675T452 651L422 552Q404 562 370 573T288 584Q259 584 238 577T203 559T183 533T176 503Q176 464 206 441T305 392Q393 359 436 312T479 192Q479 151 464 115T417 51T337 7T223 -10Q169 -10 119 2T41 32L68 134Z"  />
<glyph unicode="T" horiz-adv-x="525" d="M200 571H8V674H517V571H323V0H200V571Z"  />
<glyph unicode="U" horiz-adv-x="666" d="M193 674V281Q193 182 231 135T331 88Q398 88 435 134T473 281V674H596V289Q596 211 577 155T522 61T438 7T327 -11Q268 -11 221 6T140 59T88 151T70 288V674H193Z"  />
<glyph unicode="V" horiz-adv-x="601" d="M225 0L7 674H141L233 368Q253 304 269 244T299 122H301Q315 182 332 243T370 366L468 674H599L366 0H225Z"  />
<glyph unicode="W" horiz-adv-x="869" d="M180 0L15 674H146L210 368Q223 306 234 245T254 133H256Q264 187 277 246T305 369L378 674H507L574 364Q587 304 597 248T615 136H617Q626 192 637 249T663 369L733 674H858L677 0H545L475 317Q462 375 453 425T438 531H436Q427 477 417 426T391 317L313 0H180Z"  />
<glyph unicode="X" horiz-adv-x="594" d="M432 0L359 134Q337 173 322 202T292 261H289Q277 232 263 203T228 134L161 0H20L220 341L28 674H169L242 535Q259 503 271 477T298 422H300Q314 454 325 479T353 535L425 674H566L369 345L574 0H432Z"  />
<glyph unicode="Y" horiz-adv-x="575" d="M224 0V281L11 674H151L232 501Q249 463 262 433T290 367H292Q305 399 319 431T351 501L432 674H571L347 284V0H224Z"  />
<glyph unicode="Z" horiz-adv-x="566" d="M26 68L371 569V572H57V674H531V602L191 106V102H536V0H26V68Z"  />
<glyph unicode="[" horiz-adv-x="301" d="M74 -112V685H269V614H165V-41H269V-112H74Z"  />
<glyph unicode="\" horiz-adv-x="335" d="M241 -40L7 685H93L327 -40H241Z"  />
<glyph unicode="]" horiz-adv-x="301" d="M226 686V-112H32V-41H135V615H32V686H226Z"  />
<glyph unicode="^" horiz-adv-x="596" d="M454 182L299 553H296L141 182H50L259 650H337L546 182H454Z"  />
<glyph unicode="_" horiz-adv-x="500" d="M500 -75V-125H0V-75H500Z"  />
<glyph unicode="`" horiz-adv-x="300" d="M133 698L220 550H134L12 698H133Z"  />
<glyph unicode="a" horiz-adv-x="508" d="M340 0L332 54H329Q306 25 270 7T185 -11Q148 -11 120 1T72 33T42 80T32 134Q32 226 109 272T321 318V326Q321 338 318 353T304 380T274 402T222 411Q186 411 151 401T91 375L67 455Q94 472 139 485T243 498Q301 498 340 481T402 436T434 370T444 293V117Q444 84 445 54T451 0H340ZM324 238Q291 239 261 235T207 221T169 193T154 147Q154 111 174 94T224 77Q261 77 286 97T320 144Q322 151 323 158T324 171V238Z"  />
<glyph unicode="b" horiz-adv-x="585" d="M62 0Q64 25 65 62T66 137V710H189V420H191Q214 455 253 476T347 498Q392 498 429 480T493 430T535 352T550 251Q550 185 531 136T481 55T410 6T329 -11Q281 -11 241 8T175 73H173L167 0H62ZM189 201Q189 185 192 172Q202 135 231 111T301 86Q359 86 392 129T425 246Q425 278 418 306T395 356T356 389T302 402Q264 402 234 378T193 312Q191 305 190 297T189 280V201Z"  />
<glyph unicode="c" horiz-adv-x="449" d="M424 15Q404 6 368 -2T286 -10Q229 -10 183 7T104 57T53 135T35 238Q35 293 53 340T106 423T191 478T306 498Q340 498 372 492T425 475L403 383Q388 390 366 396T310 402Q275 402 247 390T200 357T171 306T161 244Q161 206 172 177T204 128T251 98T310 87Q342 87 365 92T407 106L424 15Z"  />
<glyph unicode="d" horiz-adv-x="581" d="M515 710V137Q515 99 516 62T519 0H409L404 77H402Q380 36 339 13T243 -11Q199 -11 162 7T96 57T51 136T35 238Q35 299 52 347T100 429T169 480T253 498Q304 498 338 480T390 434H392V710H515ZM392 284Q392 301 389 316Q381 352 353 377T283 403Q253 403 231 391T192 357T168 306T160 242Q160 175 191 132T282 88Q320 88 349 111T388 175Q392 190 392 211V284Z"  />
<glyph unicode="e" horiz-adv-x="516" d="M153 209Q154 176 166 152T199 113T247 91T303 83Q346 83 378 88T438 105L456 20Q424 7 382 -1T286 -10Q227 -10 180 7T101 57T52 134T35 236Q35 287 50 334T95 417T169 476T273 498Q332 498 372 476T437 420T472 343T483 261Q483 244 482 231T479 209H153ZM367 295Q367 312 363 332T348 371T317 401T266 414Q237 414 217 403T183 374T162 335T153 295H367Z"  />
<glyph unicode="f" horiz-adv-x="319" d="M80 0V395H14V487H80V508Q80 556 93 600T139 674Q166 700 200 710T266 721Q291 721 310 718T345 709L336 614Q326 618 314 620T284 623Q261 623 246 614T220 590T206 555T202 512V487H309V395H203V0H80Z"  />
<glyph unicode="g" horiz-adv-x="573" d="M511 487Q509 462 508 430T507 347V71Q507 -6 490 -60T435 -150Q397 -184 348 -196T247 -209Q200 -209 155 -200T77 -170L104 -77Q127 -91 164 -102T246 -114Q276 -114 301 -106T346 -80T375 -34T386 33V75H384Q363 43 327 23T242 3Q197 3 159 21T94 70T51 145T35 241Q35 301 53 348T101 429T172 480T256 498Q312 498 346 475T397 422H399L404 487H511ZM384 292Q384 300 383 308T380 325Q370 359 345 381T280 404Q228 404 194 362T160 245Q160 214 168 187T191 139T228 107T279 95Q314 95 341 115T379 169Q384 191 384 213V292Z"  />
<glyph unicode="h" horiz-adv-x="572" d="M66 710H190V420H192Q215 456 253 476Q291 498 337 498Q368 498 398 487T453 451T492 386T507 287V0H384V273Q384 327 363 362T290 397Q254 397 230 377T195 328Q192 320 191 311T190 291V0H66V710Z"  />
<glyph unicode="i" horiz-adv-x="256" d="M66 0V487H190V0H66ZM128 690Q160 690 178 671T197 623Q197 595 178 576T127 557Q96 557 78 576T59 623Q59 652 78 671T128 690Z"  />
<glyph unicode="j" horiz-adv-x="270" d="M-42 -113Q-12 -111 11 -103T50 -78Q59 -69 65 -56T74 -24T80 23T82 91V487H205V56Q205 -20 190 -69T142 -152Q110 -182 63 -195T-30 -209L-42 -113ZM144 690Q176 690 194 671T212 623Q212 596 194 577T142 557Q111 557 93 576T75 623Q75 652 93 671T144 690Z"  />
<glyph unicode="k" horiz-adv-x="509" d="M189 273H191Q200 287 210 302T230 330L348 487H496L316 288L522 0H371L231 215L189 166V0H66V710H189V273Z"  />
<glyph unicode="l" horiz-adv-x="257" d="M66 710H190V0H66V710Z"  />
<glyph unicode="m" horiz-adv-x="848" d="M66 342Q66 384 65 419T62 487H168L173 415H176Q185 429 198 444T229 471T271 490T326 498Q374 498 409 474T461 408H463Q488 448 523 469Q543 483 567 490T621 498Q651 498 680 487T733 451T770 386T784 287V0H664V269Q664 330 643 364T577 398Q545 398 523 379T491 333Q489 324 487 314T485 292V0H365V282Q365 333 345 365T281 398Q246 398 224 376T193 328Q186 311 186 288V0H66V342Z"  />
<glyph unicode="n" horiz-adv-x="572" d="M66 342Q66 384 65 419T62 487H170L176 414H179Q187 428 200 443T233 470T278 490T334 498Q366 498 397 487T452 451T492 387T507 289V0H384V275Q384 301 379 323T363 362T334 388T291 398Q254 398 230 376T195 326Q192 318 191 308T190 286V0H66V342Z"  />
<glyph unicode="o" horiz-adv-x="564" d="M287 498Q341 498 386 480T462 428T511 349T529 248Q529 181 508 132T451 52T370 5T279 -11Q227 -11 183 6T105 56T54 134T35 240Q35 300 53 348T105 429T185 480T287 498ZM284 408Q251 408 228 394T191 356T169 303T162 243Q162 208 170 178T194 125T232 91T283 78Q309 78 331 90T368 125T393 177T402 245Q402 273 396 302T375 355T338 393T284 408Z"  />
<glyph unicode="p" horiz-adv-x="585" d="M66 325Q66 373 65 412T62 487H170L176 412H178Q205 454 247 476T345 498Q387 498 424 481T489 431T533 353T550 250Q550 184 531 135T481 54T410 5T328 -11Q282 -11 246 7T191 54H189V-198H66V325ZM189 204Q189 185 193 170Q202 132 232 108T301 84Q360 84 392 128T425 245Q425 277 417 305T394 355T357 388T304 401Q266 401 235 376T194 310Q189 293 189 279V204Z"  />
<glyph unicode="q" horiz-adv-x="581" d="M392 67H390Q368 32 331 11T239 -11Q198 -11 161 6T96 55T52 133T35 236Q35 303 54 352T105 433T175 482T253 498Q304 498 339 478T395 423L397 422L400 487H519Q517 454 516 419T515 346V-198H392V67ZM392 286Q392 302 389 316Q381 351 354 376T284 401Q254 401 231 389T193 356T169 306T160 242Q160 209 168 181T191 131T229 98T281 86Q319 86 347 108T386 167Q392 185 392 205V286Z"  />
<glyph unicode="r" horiz-adv-x="356" d="M66 330Q66 380 65 417T62 487H169L173 394H177Q195 446 233 472T310 498Q319 498 325 498T339 495V379Q331 381 323 382T303 383Q258 383 230 358T193 290Q191 282 190 273T189 252V0H66V330Z"  />
<glyph unicode="s" horiz-adv-x="417" d="M60 113Q81 100 116 89T185 78Q226 78 244 93T263 132Q263 157 246 172T183 203Q111 228 80 265T49 345Q49 377 62 405T99 453T157 486T233 498Q274 498 307 489T362 469L338 382Q322 391 295 400T235 410Q202 410 185 396T167 359Q167 336 186 322T252 291Q318 267 349 232T382 142Q382 76 332 33T184 -10Q139 -10 101 -1T36 24L60 113Z"  />
<glyph unicode="t" horiz-adv-x="351" d="M207 626V487H324V395H207V180Q207 135 221 113T270 90Q286 90 298 92T318 96L320 2Q306 -3 283 -6T231 -10Q197 -10 170 0T125 30Q87 71 87 166V395H17V487H87V597L207 626Z"  />
<glyph unicode="u" horiz-adv-x="569" d="M502 146Q502 102 503 66T506 0H398L392 74H390Q382 61 369 46T337 19T293 -2T234 -11Q201 -11 170 0T116 35T78 100T64 201V487H187V222Q187 161 208 125T278 89Q315 89 338 110T372 155Q379 174 379 193V487H502V146Z"  />
<glyph unicode="v" horiz-adv-x="508" d="M144 487L223 240Q234 208 241 178T256 118H259Q266 148 274 177T292 240L369 487H499L313 0H192L11 487H144Z"  />
<glyph unicode="w" horiz-adv-x="749" d="M140 487L191 266Q199 227 207 188T222 108H224Q232 148 242 187T264 265L327 487H427L488 271Q499 228 509 188T527 108H529Q535 148 543 188T561 271L615 487H736L583 0H469L411 198Q400 236 391 272T374 354H372Q364 309 355 272T335 198L273 0H158L14 487H140Z"  />
<glyph unicode="x" horiz-adv-x="494" d="M148 487L206 395Q218 375 228 357T250 320H253Q264 340 274 359T295 397L349 487H483L320 253L486 0H347L287 97Q275 117 265 136T243 176H241Q230 155 220 136T197 97L141 0H5L174 248L11 487H148Z"  />
<glyph unicode="y" horiz-adv-x="500" d="M143 487L231 226Q239 203 246 178T258 131H261Q267 152 273 177T287 227L363 487H495L373 155Q348 87 327 37T285 -51T245 -113T203 -158Q167 -190 132 -204T74 -221L46 -117Q62 -113 80 -105T118 -83Q135 -72 153 -52T185 -6Q193 8 193 16Q193 20 192 25T186 40L8 487H143Z"  />
<glyph unicode="z" horiz-adv-x="450" d="M20 71L203 305Q222 328 238 347T275 387V389H38V487H425V412L246 183Q228 161 211 141T174 100V98H431V0H20V71Z"  />
<glyph unicode="{" horiz-adv-x="301" d="M29 320Q55 320 70 327T94 344T104 366T107 391Q107 411 105 431T101 471Q98 492 96 512T94 552Q94 623 135 654T243 686H272V614H254Q215 614 200 594T184 536Q184 521 186 506T191 473Q193 456 195 439T197 401Q198 348 177 323T117 289V287Q155 278 176 253T197 174Q197 154 195 136T191 101Q188 84 186 69T184 38Q184 0 200 -20T254 -41H272V-112H243Q210 -112 183 -105T136 -82T105 -39T94 25Q94 44 96 64T101 105Q103 125 105 144T107 184Q107 195 105 207T94 229T71 247T29 255V320Z"  />
<glyph unicode="|" horiz-adv-x="263" d="M176 750V-250H87V750H176Z"  />
<glyph unicode="}" horiz-adv-x="301" d="M271 255Q245 255 230 248T206 230T196 207T193 184Q193 164 195 145T200 105Q202 85 204 65T207 25Q207 -13 196 -39T165 -81T118 -105T58 -112H29V-41H47Q85 -40 100 -20T116 38Q116 53 114 68T110 101Q108 118 106 136T104 174Q103 227 124 252T183 287V289Q145 298 124 323T104 401Q104 421 106 438T110 473Q112 490 114 505T116 536Q116 573 101 593T47 614H29V686H58Q125 686 166 655T207 552Q207 532 205 512T200 471Q198 451 196 431T193 391Q193 379 195 367T206 344T229 327T271 320V255Z"  />
<glyph unicode="~" horiz-adv-x="596" d="M45 200Q44 245 54 277T81 330T123 361T176 371Q210 371 240 360T316 324Q351 306 376 295T425 284Q447 284 458 303T471 366H551Q553 318 544 285T517 232T476 203T426 194Q393 194 362 206T284 241Q249 259 225 271T177 284Q155 284 141 266T125 200H45Z"  />
<glyph unicode="&#xA0;" horiz-adv-x="207" />
<glyph unicode="&#xA1;" horiz-adv-x="251" d="M61 -198L79 267H173L191 -198H61ZM126 492Q160 492 180 470T201 413Q201 380 181 358T126 336Q92 336 71 358T50 413Q50 448 71 470T126 492Z"  />
<glyph unicode="&#xA2;" horiz-adv-x="536" d="M274 -13V87Q226 93 190 111T127 160Q101 190 86 232T71 327Q71 373 85 414T125 489T188 544T274 575V673H356V579Q385 578 411 572T458 557L436 465Q419 473 396 479T340 486Q307 486 280 475T235 442T206 393T196 332Q196 294 207 266T237 218T283 189T338 179Q374 179 399 185T444 200L461 111Q444 102 417 95T356 85V-13H274Z"  />
<glyph unicode="&#xA3;" horiz-adv-x="536" d="M53 0V67Q75 77 95 93T132 130T157 175T166 226Q166 240 165 253T162 280H62V365H148Q144 386 141 410T138 458Q138 504 153 541T197 605T263 646T349 661Q390 661 418 654T463 636L441 543Q427 551 405 557T354 563Q326 563 307 555T276 531T259 497T253 455Q253 429 256 408T264 365H404V280H275Q276 257 275 235T268 191Q254 142 210 103V101H491V0H53Z"  />
<glyph unicode="&#xA4;" horiz-adv-x="536" d="M268 543Q303 543 332 533T384 505L458 585L515 527L432 452Q445 432 455 403T465 335Q465 293 455 263T430 214L510 136L454 80L383 162Q360 142 328 132T266 121Q235 121 204 131T151 160L82 80L26 136L104 211Q90 231 79 261T68 331Q68 373 79 402T104 452L23 526L80 585L153 504Q198 543 268 543ZM267 459Q220 459 191 423T162 332Q162 299 172 276T197 236T230 213T266 205Q285 205 303 212T337 235T361 275T370 334Q370 359 363 381T343 421T310 449T267 459Z"  />
<glyph unicode="&#xA5;" horiz-adv-x="536" d="M205 0V167H49V228H205V296H49V357H174L8 650H141L225 469Q239 441 248 417T267 369H269Q278 392 288 417T311 471L398 650H528L353 357H477V296H320V228H477V167H320V0H205Z"  />
<glyph unicode="&#xA6;" horiz-adv-x="263" d="M176 174V-176H87V174H176ZM176 674V324H87V674H176Z"  />
<glyph unicode="&#xA7;" horiz-adv-x="542" d="M148 347Q148 321 170 300T244 261Q280 248 311 237T360 216Q376 227 384 243T393 279Q393 304 375 324T315 360Q300 366 283 372T248 385T216 397T188 410Q169 398 159 382T148 347ZM421 576Q400 587 369 596T294 606Q250 606 224 590T198 546Q198 516 228 499T313 464Q351 452 383 439T440 406T477 360T491 297Q491 257 473 228T422 176Q436 165 450 141T464 85Q464 42 445 13T395 -35T328 -62T256 -71Q210 -71 164 -61T82 -27L109 49Q129 36 168 22T252 8Q296 8 324 24T352 73Q352 102 327 121T239 161Q200 174 166 188T106 221T66 266T51 327Q51 358 69 391T130 447Q114 459 103 483T91 534Q91 570 107 598T150 645T215 674T294 684Q379 684 443 653L421 576Z"  />
<glyph unicode="&#xA8;" horiz-adv-x="300" d="M51 563Q24 563 7 581T-11 624Q-11 650 7 668T52 686Q77 686 94 669T111 624Q111 599 94 581T51 563ZM250 563Q223 563 206 581T189 624Q189 650 206 668T250 686Q276 686 293 669T310 624Q310 599 293 581T250 563Z"  />
<glyph unicode="&#xA9;" horiz-adv-x="677" d="M340 648Q404 648 459 624T555 558T619 460T643 340Q643 275 620 219T555 120T459 54T340 30Q276 30 220 54T123 120T58 218T34 340Q34 404 58 460T123 558T220 624T340 648ZM339 598Q287 598 242 578T164 523T111 440T92 338Q92 284 111 237T163 155T242 100T339 80Q390 80 435 100T513 155T566 237T585 339Q585 393 566 440T514 522T435 578T339 598ZM461 445Q451 451 425 459T364 468Q301 468 267 433T233 337Q233 280 267 243T364 205Q395 205 421 212T465 230L479 185Q453 167 420 160T355 153Q311 153 277 167T220 205T184 263T171 334Q171 377 187 411T229 470T291 507T364 520Q402 520 433 511T474 493L461 445Z"  />
<glyph unicode="&#xAA;" horiz-adv-x="363" d="M246 266L240 303H238Q221 286 196 274T138 261Q88 261 61 289T33 358Q33 414 86 444T232 473V481Q232 485 230 493T221 510T201 524T165 530Q139 530 116 523T76 504L57 559Q77 572 109 581T181 591Q220 591 246 580T289 549T312 504T319 451V344Q319 322 320 302T325 266H246ZM234 421Q212 421 192 419T155 410T129 392T119 364Q119 344 134 332T169 320Q188 320 203 329T227 353Q234 364 234 377V421Z"  />
<glyph unicode="&#xAB;" horiz-adv-x="444" d="M115 252L241 64H151L27 252L150 440H241L115 252ZM296 252L421 64H331L208 252L331 440H421L296 252Z"  />
<glyph unicode="&#xAC;" horiz-adv-x="596" d="M556 412V113H474V334H40V412H556Z"  />
<glyph unicode="&#xAD;" horiz-adv-x="291" d="M285 309V224H30V309H285Z"  />
<glyph unicode="&#xAE;" horiz-adv-x="441" d="M197 433H153V594Q163 596 180 597T220 599Q246 599 259 596T280 587Q298 576 298 552Q298 539 288 530T262 515V513Q286 505 293 472Q297 454 300 446T305 433H256Q252 438 250 447T244 470Q240 494 214 494H197V433ZM198 525H215Q229 525 238 530T248 546Q248 568 217 568Q211 568 207 568T198 567V525ZM221 685Q257 685 289 672T344 636T380 583T394 517Q394 481 381 450T344 396T289 360T221 347Q185 347 154 360T98 396T61 450T47 517Q47 552 60 582T98 636T153 672T221 685ZM221 646Q194 646 171 636T131 608T105 567T95 516Q95 489 104 466T131 424T171 396T221 386Q248 386 271 396T310 424T336 465T346 516Q346 543 337 566T311 608T271 636T221 646Z"  />
<glyph unicode="&#xAF;" horiz-adv-x="300" d="M270 655V584H31V655H270Z"  />
<glyph unicode="&#xB0;" horiz-adv-x="339" d="M171 685Q204 685 230 674T275 643T304 599T314 546Q314 515 302 489T271 445T225 416T170 405Q138 405 112 416T68 445T39 489T28 542Q28 572 39 598T69 643T115 674T171 685ZM171 626Q153 626 140 619T116 601T101 574T96 543Q96 510 117 487T171 464Q203 464 224 487T246 545Q246 559 242 573T228 599T204 618T171 626Z"  />
<glyph unicode="&#xB1;" horiz-adv-x="596" d="M339 576V393H556V315H339V128H257V315H40V393H257V576H339ZM556 78V0H40V78H556Z"  />
<glyph unicode="&#xB2;" horiz-adv-x="333" d="M14 490L76 547Q106 574 128 595T166 634T188 670T196 704Q196 729 180 745T130 762Q104 762 82 753T45 733L19 795Q42 812 77 825T154 838Q190 838 217 829T262 803T288 765T297 721Q297 693 287 670T261 624T222 582T175 540L147 517V515H304V443H14V490Z"  />
<glyph unicode="&#xB3;" horiz-adv-x="328" d="M26 806Q46 818 80 828T155 838Q224 838 257 809T290 741Q290 709 268 686T210 652V650Q251 645 278 619T305 555Q305 505 260 472T135 438Q96 438 63 446T9 466L30 531Q44 523 71 514T125 505Q163 505 183 521T204 560Q204 575 196 586T175 605T144 615T109 619H80V677H108Q121 677 135 680T162 689T183 704T191 728Q191 745 178 757T134 770Q107 770 84 762T46 745L26 806Z"  />
<glyph unicode="&#xB4;" horiz-adv-x="300" d="M295 698L172 550H87L174 698H295Z"  />
<glyph unicode="&#xB5;" horiz-adv-x="570" d="M393 71Q386 57 375 43T347 18T311 -1T265 -8Q239 -8 216 2T179 32V-18Q179 -38 179 -63T181 -113T184 -160T189 -198H80Q76 -188 74 -170T70 -127T67 -76T66 -21V487H189V208Q189 155 210 122T279 89Q315 89 340 110T374 155Q378 163 379 172T381 193V487H504V148Q504 112 514 98T547 82L540 -4Q523 -11 496 -11Q458 -11 432 9T396 71H393Z"  />
<glyph unicode="&#xB6;" horiz-adv-x="529" d="M217 -48V264H210Q184 264 153 275T95 311T50 371T32 455Q32 494 44 533T88 605T176 657T319 677Q362 677 395 675T450 667V-48H369V598H298V-48H217Z"  />
<glyph unicode="&#xB7;" horiz-adv-x="236" d="M118 182Q84 182 63 204T42 261Q42 296 63 318T118 340Q152 340 173 318T194 261Q194 226 174 204T118 182Z"  />
<glyph unicode="&#xB8;" horiz-adv-x="300" d="M197 3L167 -47Q196 -50 217 -69T239 -118Q239 -141 230 -157T205 -183T168 -197T125 -202Q103 -202 84 -197T50 -183L68 -133Q81 -141 95 -145T122 -149Q137 -149 149 -143T161 -120Q161 -87 83 -81L128 3H197Z"  />
<glyph unicode="&#xB9;" horiz-adv-x="275" d="M113 443V753H111L35 718L21 787L125 833H209V443H113Z"  />
<glyph unicode="&#xBA;" horiz-adv-x="372" d="M187 591Q224 591 254 579T306 545T339 494T351 429Q351 386 337 355T299 302T246 271T185 261Q150 261 121 272T69 305T34 356T21 423Q21 461 34 492T69 545T122 579T187 591ZM185 528Q165 528 151 519T128 494T115 461T110 425Q110 382 131 353T186 324Q220 324 240 352T261 426Q261 443 257 461T243 494T219 518T185 528Z"  />
<glyph unicode="&#xBB;" horiz-adv-x="444" d="M23 440H112L236 252L112 64H23L149 252L23 440ZM202 440H291L415 252L291 64H202L328 252L202 440Z"  />
<glyph unicode="&#xBC;" horiz-adv-x="799" d="M130 266V576H129L53 541L39 610L143 656H226V266H130ZM158 -11L531 661H602L228 -11H158ZM618 0V96H420V148L601 394H707V159H763V96H707V0H618ZM618 252Q618 271 619 288T621 322H619Q609 305 601 290T584 261L510 160L512 159H618V252Z"  />
<glyph unicode="&#xBD;" horiz-adv-x="799" d="M117 266V576H116L39 541L26 610L129 656H213V266H117ZM136 -11L509 661H580L207 -11H136ZM465 48L527 104Q586 158 616 192T647 262Q647 287 631 303T581 320Q555 320 533 311T496 290L470 353Q493 370 528 382T605 395Q641 395 668 386T713 360T739 322T748 278Q748 251 738 228T712 182T673 140T626 98L598 75V72H755V0H465V48Z"  />
<glyph unicode="&#xBE;" horiz-adv-x="799" d="M45 629Q65 642 99 651T174 661Q243 661 276 632T309 564Q309 533 287 510T229 475V473Q271 468 297 443T324 379Q324 328 279 295T154 261Q115 261 82 269T28 289L49 354Q63 346 90 337T145 328Q183 328 203 345T223 384Q223 399 215 410T194 429T163 439T128 443H99V501H127Q140 501 154 503T181 512T202 528T210 552Q210 569 197 581T153 594Q126 594 103 585T65 568L45 629ZM192 -11L565 661H636L263 -11H192ZM628 0V96H430V148L611 394H717V159H774V96H717V0H628ZM628 252Q628 271 629 288T632 322H629Q620 304 612 289T595 261L520 160L522 159H628V252Z"  />
<glyph unicode="&#xBF;" horiz-adv-x="428" d="M243 492Q277 492 298 471T319 414Q319 380 299 358T243 336Q209 336 188 358T167 414Q167 449 188 470T243 492ZM295 271L297 246Q300 206 286 167T236 84Q207 50 190 23T173 -33Q173 -65 193 -84T256 -104Q282 -104 309 -96T356 -74L385 -162Q359 -179 318 -191T229 -203Q182 -203 148 -191T92 -157T59 -109T48 -51Q48 -24 55 -1T75 42T102 81T134 118Q164 153 176 183T187 250V271H295Z"  />
<glyph unicode="&#xC0;" horiz-adv-x="636" d="M206 191L148 0H21L237 674H394L613 0H481L420 191H206ZM399 284L346 450Q336 481 328 514T312 576H310Q302 547 295 514T278 450L226 284H399ZM292 830L380 711H281L156 830H292Z"  />
<glyph unicode="&#xC1;" horiz-adv-x="636" d="M206 191L148 0H21L237 674H394L613 0H481L420 191H206ZM399 284L346 450Q336 481 328 514T312 576H310Q302 547 295 514T278 450L226 284H399ZM478 830L353 710H254L342 830H478Z"  />
<glyph unicode="&#xC2;" horiz-adv-x="636" d="M206 191L148 0H21L237 674H394L613 0H481L420 191H206ZM399 284L346 450Q336 481 328 514T312 576H310Q302 547 295 514T278 450L226 284H399ZM366 829L469 710H377L321 775H319L263 710H172L273 829H366Z"  />
<glyph unicode="&#xC3;" horiz-adv-x="636" d="M206 191L148 0H21L237 674H394L613 0H481L420 191H206ZM399 284L346 450Q336 481 328 514T312 576H310Q302 547 295 514T278 450L226 284H399ZM188 715Q186 771 206 801T261 831Q280 831 294 825T323 811Q336 803 347 798T369 792Q381 792 387 800T396 833H455Q456 775 437 748T381 721Q362 721 347 726T318 740Q304 748 294 753T273 758Q251 758 248 715H188Z"  />
<glyph unicode="&#xC4;" horiz-adv-x="636" d="M206 191L148 0H21L237 674H394L613 0H481L420 191H206ZM399 284L346 450Q336 481 328 514T312 576H310Q302 547 295 514T278 450L226 284H399ZM223 715Q197 715 180 733T163 776Q163 802 180 819T224 836Q248 836 264 819T281 776Q281 751 265 733T223 715ZM421 715Q395 715 378 733T361 776Q361 802 378 819T421 836Q447 836 463 819T479 776Q479 751 463 733T421 715Z"  />
<glyph unicode="&#xC5;" horiz-adv-x="636" d="M206 191L148 0H21L237 674H394L613 0H481L420 191H206ZM399 284L346 450Q336 481 328 514T312 576H310Q302 547 295 514T278 450L226 284H399ZM317 889Q370 889 397 862T425 794Q425 755 396 728T317 701Q266 701 238 728T209 793Q209 833 237 861T317 889ZM316 845Q293 845 282 829T270 793Q270 775 282 760T316 745Q338 745 350 759T363 795Q363 815 351 830T316 845Z"  />
<glyph unicode="&#xC6;" horiz-adv-x="832" d="M1 0L297 674H770V573H489L510 397H763V297H525L550 101H802V0H445L418 208H217L128 0H1ZM404 307L383 484Q380 507 377 534T371 587H368Q359 562 349 536T329 485L255 307H404Z"  />
<glyph unicode="&#xC7;" horiz-adv-x="592" d="M554 20Q533 9 491 0T388 -10L367 -47Q396 -53 417 -72T438 -125Q438 -149 428 -166T403 -193T367 -208T327 -213Q305 -213 284 -208T247 -195L265 -140Q276 -146 291 -150T321 -154Q337 -154 348 -148T359 -126Q359 -95 281 -86L321 -6Q254 2 201 29T112 99T56 201T36 329Q36 412 63 478T139 590T253 660T396 685Q457 685 499 675T560 655L533 557Q509 568 476 575T401 583Q350 583 307 567T232 520T183 442T165 335Q165 279 181 235T227 158T300 109T400 92Q437 92 473 99T534 117L554 20Z"  />
<glyph unicode="&#xC8;" horiz-adv-x="515" d="M448 299H194V101H478V0H71V674H463V573H194V399H448V299ZM250 830L338 711H239L114 830H250Z"  />
<glyph unicode="&#xC9;" horiz-adv-x="515" d="M448 299H194V101H478V0H71V674H463V573H194V399H448V299ZM431 830L306 710H207L295 830H431Z"  />
<glyph unicode="&#xCA;" horiz-adv-x="515" d="M448 299H194V101H478V0H71V674H463V573H194V399H448V299ZM315 829L418 710H326L270 775H268L211 710H121L222 829H315Z"  />
<glyph unicode="&#xCB;" horiz-adv-x="515" d="M448 299H194V101H478V0H71V674H463V573H194V399H448V299ZM166 716Q140 716 123 734T106 777Q106 803 123 820T166 837Q191 837 207 820T224 777Q224 752 208 734T166 716ZM363 716Q337 716 321 734T304 777Q304 803 321 820T364 837Q389 837 405 820T422 777Q422 752 406 734T363 716Z"  />
<glyph unicode="&#xCC;" horiz-adv-x="264" d="M194 674V0H71V674H194ZM110 830L198 711H98L-26 830H110Z"  />
<glyph unicode="&#xCD;" horiz-adv-x="264" d="M194 674V0H71V674H194ZM292 830L167 710H68L156 830H292Z"  />
<glyph unicode="&#xCE;" horiz-adv-x="264" d="M194 674V0H71V674H194ZM178 829L281 710H189L133 775H131L75 710H-16L85 829H178Z"  />
<glyph unicode="&#xCF;" horiz-adv-x="264" d="M194 674V0H71V674H194ZM34 716Q8 716 -9 734T-26 777Q-26 803 -9 820T35 837Q60 837 76 820T92 777Q92 752 76 734T34 716ZM232 716Q206 716 189 734T172 777Q172 803 189 820T232 837Q258 837 274 820T291 777Q291 752 275 734T232 716Z"  />
<glyph unicode="&#xD0;" horiz-adv-x="689" d="M1 391H77V667Q119 674 168 678T273 682Q369 682 435 663T548 605Q598 565 626 503T654 353Q654 262 626 195T549 84Q498 37 420 14T243 -9Q189 -9 148 -7T77 0V294H1V391ZM355 294H200V92Q213 90 231 90T269 89Q390 89 457 154T524 351Q524 466 463 526T284 586Q255 586 235 584T200 579V391H355V294Z"  />
<glyph unicode="&#xD1;" horiz-adv-x="676" d="M71 0V674H211L385 385Q419 328 448 271T500 159H502Q496 227 494 294T491 439V674H605V0H478L302 296Q270 352 238 412T181 529L178 528Q182 462 183 394T184 241V0H71ZM208 715Q206 771 226 801T281 831Q300 831 314 825T343 811Q356 803 367 798T389 792Q401 792 407 800T416 833H475Q476 775 457 748T401 721Q382 721 367 726T338 740Q324 748 314 753T293 758Q271 758 268 715H208Z"  />
<glyph unicode="&#xD2;" horiz-adv-x="704" d="M356 685Q430 685 488 659T586 587T648 479T669 344Q669 259 645 193T577 82T475 13T346 -11Q275 -11 218 14T120 86T58 195T36 332Q36 410 59 474T125 586T226 659T356 685ZM353 586Q307 586 272 566T214 512T178 432T166 334Q166 283 178 238T215 160T274 107T353 88Q398 88 432 107T490 160T526 240T539 339Q539 387 527 431T492 510T434 565T353 586ZM329 832L417 713H318L193 832H329Z"  />
<glyph unicode="&#xD3;" horiz-adv-x="704" d="M356 685Q430 685 488 659T586 587T648 479T669 344Q669 259 645 193T577 82T475 13T346 -11Q275 -11 218 14T120 86T58 195T36 332Q36 410 59 474T125 586T226 659T356 685ZM353 586Q307 586 272 566T214 512T178 432T166 334Q166 283 178 238T215 160T274 107T353 88Q398 88 432 107T490 160T526 240T539 339Q539 387 527 431T492 510T434 565T353 586ZM514 832L389 712H290L378 832H514Z"  />
<glyph unicode="&#xD4;" horiz-adv-x="704" d="M356 685Q430 685 488 659T586 587T648 479T669 344Q669 259 645 193T577 82T475 13T346 -11Q275 -11 218 14T120 86T58 195T36 332Q36 410 59 474T125 586T226 659T356 685ZM353 586Q307 586 272 566T214 512T178 432T166 334Q166 283 178 238T215 160T274 107T353 88Q398 88 432 107T490 160T526 240T539 339Q539 387 527 431T492 510T434 565T353 586ZM398 830L501 712H409L353 777H351L295 712H204L305 830H398Z"  />
<glyph unicode="&#xD5;" horiz-adv-x="704" d="M356 685Q430 685 488 659T586 587T648 479T669 344Q669 259 645 193T577 82T475 13T346 -11Q275 -11 218 14T120 86T58 195T36 332Q36 410 59 474T125 586T226 659T356 685ZM353 586Q307 586 272 566T214 512T178 432T166 334Q166 283 178 238T215 160T274 107T353 88Q398 88 432 107T490 160T526 240T539 339Q539 387 527 431T492 510T434 565T353 586ZM219 716Q217 772 237 802T292 832Q311 832 325 826T354 812Q366 804 377 799T400 793Q412 793 418 801T427 834H485Q487 775 468 749T412 722Q393 722 378 727T348 741Q334 749 325 754T304 759Q282 759 279 716H219Z"  />
<glyph unicode="&#xD6;" horiz-adv-x="704" d="M356 685Q430 685 488 659T586 587T648 479T669 344Q669 259 645 193T577 82T475 13T346 -11Q275 -11 218 14T120 86T58 195T36 332Q36 410 59 474T125 586T226 659T356 685ZM353 586Q307 586 272 566T214 512T178 432T166 334Q166 283 178 238T215 160T274 107T353 88Q398 88 432 107T490 160T526 240T539 339Q539 387 527 431T492 510T434 565T353 586ZM254 716Q228 716 211 734T194 777Q194 803 211 820T254 837Q279 837 295 820T312 777Q312 752 296 734T254 716ZM451 716Q425 716 409 734T392 777Q392 803 409 820T452 837Q477 837 493 820T510 777Q510 752 494 734T451 716Z"  />
<glyph unicode="&#xD7;" horiz-adv-x="596" d="M95 526L298 319L500 526L556 470L354 263L556 56L500 0L298 206L96 0L40 56L242 263L40 470L95 526Z"  />
<glyph unicode="&#xD8;" horiz-adv-x="704" d="M68 -2L127 84Q82 130 59 195T36 335Q36 411 59 475T125 586T225 659T354 685Q398 685 437 675T512 642L569 723L640 675L581 590Q625 543 647 479T669 342Q669 257 644 191T577 80T477 12T353 -11Q266 -11 197 32L135 -56L68 -2ZM454 553Q433 570 408 579T353 588Q306 588 270 568T210 514T173 434T160 337Q160 293 169 258T196 188L198 189L454 553ZM255 120Q275 103 298 95T352 86Q398 86 433 105T494 159T532 239T545 339Q545 374 538 410T511 481H509L255 120Z"  />
<glyph unicode="&#xD9;" horiz-adv-x="666" d="M193 674V281Q193 182 231 135T331 88Q398 88 435 134T473 281V674H596V289Q596 211 577 155T522 61T438 7T327 -11Q268 -11 221 6T140 59T88 151T70 288V674H193ZM314 830L402 711H302L178 830H314Z"  />
<glyph unicode="&#xDA;" horiz-adv-x="666" d="M193 674V281Q193 182 231 135T331 88Q398 88 435 134T473 281V674H596V289Q596 211 577 155T522 61T438 7T327 -11Q268 -11 221 6T140 59T88 151T70 288V674H193ZM492 830L367 710H268L356 830H492Z"  />
<glyph unicode="&#xDB;" horiz-adv-x="666" d="M193 674V281Q193 182 231 135T331 88Q398 88 435 134T473 281V674H596V289Q596 211 577 155T522 61T438 7T327 -11Q268 -11 221 6T140 59T88 151T70 288V674H193ZM388 829L490 710H398L342 775H340L284 710H193L295 829H388Z"  />
<glyph unicode="&#xDC;" horiz-adv-x="666" d="M193 674V281Q193 182 231 135T331 88Q398 88 435 134T473 281V674H596V289Q596 211 577 155T522 61T438 7T327 -11Q268 -11 221 6T140 59T88 151T70 288V674H193ZM239 716Q213 716 196 734T179 777Q179 803 196 820T239 837Q264 837 280 820T297 777Q297 752 281 734T239 716ZM436 716Q410 716 394 734T377 777Q377 803 394 820T437 837Q462 837 478 820T495 777Q495 752 479 734T436 716Z"  />
<glyph unicode="&#xDD;" horiz-adv-x="575" d="M224 0V281L11 674H151L232 501Q249 463 262 433T290 367H292Q305 399 319 431T351 501L432 674H571L347 284V0H224ZM455 827L331 707H231L319 827H455Z"  />
<glyph unicode="&#xDE;" horiz-adv-x="558" d="M71 674H192V548Q209 550 230 551T281 553Q399 553 462 499Q491 473 507 438T523 360Q523 302 503 260T448 191T366 151T264 138Q241 138 223 139T192 143V0H71V674ZM192 240Q206 237 223 236T260 234Q331 234 366 266T401 350Q401 405 366 432T268 459Q241 459 222 457T192 452V240Z"  />
<glyph unicode="&#xDF;" horiz-adv-x="576" d="M66 0V440Q66 526 86 578T141 663Q202 721 306 721Q347 721 383 709T446 674T488 618T504 543Q504 519 498 497T481 461Q417 432 417 387Q417 365 428 349T459 311Q472 297 486 282T512 247T531 206T539 155Q539 81 489 35T347 -11Q319 -11 291 -7T241 7L258 99Q293 83 334 83Q374 83 394 102T415 149Q415 173 404 191T371 233Q357 246 344 261T319 292T301 328T294 370Q294 408 315 440T378 494Q386 512 386 533Q386 575 362 600T296 626Q247 626 219 587T190 449V0H66Z"  />
<glyph unicode="&#xE0;" horiz-adv-x="508" d="M340 0L332 54H329Q306 25 270 7T185 -11Q148 -11 120 1T72 33T42 80T32 134Q32 226 109 272T321 318V326Q321 338 318 353T304 380T274 402T222 411Q186 411 151 401T91 375L67 455Q94 472 139 485T243 498Q301 498 340 481T402 436T434 370T444 293V117Q444 84 445 54T451 0H340ZM324 238Q291 239 261 235T207 221T169 193T154 147Q154 111 174 94T224 77Q261 77 286 97T320 144Q322 151 323 158T324 171V238ZM219 698L305 550H220L98 698H219Z"  />
<glyph unicode="&#xE1;" horiz-adv-x="508" d="M340 0L332 54H329Q306 25 270 7T185 -11Q148 -11 120 1T72 33T42 80T32 134Q32 226 109 272T321 318V326Q321 338 318 353T304 380T274 402T222 411Q186 411 151 401T91 375L67 455Q94 472 139 485T243 498Q301 498 340 481T402 436T434 370T444 293V117Q444 84 445 54T451 0H340ZM324 238Q291 239 261 235T207 221T169 193T154 147Q154 111 174 94T224 77Q261 77 286 97T320 144Q322 151 323 158T324 171V238ZM400 698L277 550H192L279 698H400Z"  />
<glyph unicode="&#xE2;" horiz-adv-x="508" d="M340 0L332 54H329Q306 25 270 7T185 -11Q148 -11 120 1T72 33T42 80T32 134Q32 226 109 272T321 318V326Q321 338 318 353T304 380T274 402T222 411Q186 411 151 401T91 375L67 455Q94 472 139 485T243 498Q301 498 340 481T402 436T434 370T444 293V117Q444 84 445 54T451 0H340ZM324 238Q291 239 261 235T207 221T169 193T154 147Q154 111 174 94T224 77Q261 77 286 97T320 144Q322 151 323 158T324 171V238ZM291 698L389 550H304L250 641H248L195 550H111L208 698H291Z"  />
<glyph unicode="&#xE3;" horiz-adv-x="508" d="M340 0L332 54H329Q306 25 270 7T185 -11Q148 -11 120 1T72 33T42 80T32 134Q32 226 109 272T321 318V326Q321 338 318 353T304 380T274 402T222 411Q186 411 151 401T91 375L67 455Q94 472 139 485T243 498Q301 498 340 481T402 436T434 370T444 293V117Q444 84 445 54T451 0H340ZM324 238Q291 239 261 235T207 221T169 193T154 147Q154 111 174 94T224 77Q261 77 286 97T320 144Q322 151 323 158T324 171V238ZM114 562Q112 619 133 650T189 681Q207 681 222 675T253 660Q265 653 275 648T296 642Q307 642 313 650T322 685H382Q384 625 364 597T306 569Q287 569 272 575T240 590Q226 598 218 602T200 607Q178 607 175 562H114Z"  />
<glyph unicode="&#xE4;" horiz-adv-x="508" d="M340 0L332 54H329Q306 25 270 7T185 -11Q148 -11 120 1T72 33T42 80T32 134Q32 226 109 272T321 318V326Q321 338 318 353T304 380T274 402T222 411Q186 411 151 401T91 375L67 455Q94 472 139 485T243 498Q301 498 340 481T402 436T434 370T444 293V117Q444 84 445 54T451 0H340ZM324 238Q291 239 261 235T207 221T169 193T154 147Q154 111 174 94T224 77Q261 77 286 97T320 144Q322 151 323 158T324 171V238ZM155 563Q128 563 111 581T93 624Q93 650 111 668T156 686Q181 686 198 669T215 624Q215 599 198 581T155 563ZM354 563Q327 563 310 581T293 624Q293 650 310 668T354 686Q380 686 397 669T414 624Q414 599 397 581T354 563Z"  />
<glyph unicode="&#xE5;" horiz-adv-x="508" d="M340 0L332 54H329Q306 25 270 7T185 -11Q148 -11 120 1T72 33T42 80T32 134Q32 226 109 272T321 318V326Q321 338 318 353T304 380T274 402T222 411Q186 411 151 401T91 375L67 455Q94 472 139 485T243 498Q301 498 340 481T402 436T434 370T444 293V117Q444 84 445 54T451 0H340ZM324 238Q291 239 261 235T207 221T169 193T154 147Q154 111 174 94T224 77Q261 77 286 97T320 144Q322 151 323 158T324 171V238ZM254 538Q204 538 175 565T145 632Q145 674 173 702T255 730Q306 730 333 703T361 633Q361 592 332 565T254 538ZM253 582Q276 582 289 597T302 634Q302 654 289 669T252 685Q230 685 218 669T206 632Q206 614 218 598T253 582Z"  />
<glyph unicode="&#xE6;" horiz-adv-x="790" d="M437 216Q437 152 477 117T580 82Q628 82 658 90T714 109L733 24Q698 6 654 -2T563 -11Q501 -11 451 13T377 85H374Q348 40 302 15T193 -11Q154 -11 124 1T74 33T43 79T32 135Q32 178 52 211T109 267T201 301T322 313V330Q322 337 319 350T304 377T273 401T220 411Q184 411 150 400T93 374L67 453Q96 470 139 484T230 498Q292 498 331 474T389 408H391Q418 450 460 474T559 498Q614 498 651 476T712 419T746 343T757 264Q757 250 756 237T754 216H437ZM325 235Q293 236 262 232T207 218T168 190T153 145Q153 112 174 95T225 77Q263 77 287 97T321 143Q325 155 325 175V235ZM642 301Q642 316 638 335T623 372T593 402T545 415Q517 415 497 404T464 375T444 338T437 301H642Z"  />
<glyph unicode="&#xE7;" horiz-adv-x="449" d="M424 15Q407 7 377 -1T305 -10L284 -47Q312 -53 333 -72T355 -124Q355 -149 345 -166T320 -193T284 -208T243 -213Q223 -213 202 -209T165 -194L182 -140Q193 -147 208 -150T237 -154Q253 -154 265 -148T277 -126Q276 -94 198 -87L239 -6Q145 7 90 72T35 238Q35 293 53 340T106 423T191 478T306 498Q340 498 372 492T425 475L403 383Q388 390 366 396T310 402Q275 402 247 390T200 357T171 306T161 244Q161 206 172 177T204 128T251 98T310 87Q342 87 365 92T407 106L424 15Z"  />
<glyph unicode="&#xE8;" horiz-adv-x="516" d="M153 209Q154 176 166 152T199 113T247 91T303 83Q346 83 378 88T438 105L456 20Q424 7 382 -1T286 -10Q227 -10 180 7T101 57T52 134T35 236Q35 287 50 334T95 417T169 476T273 498Q332 498 372 476T437 420T472 343T483 261Q483 244 482 231T479 209H153ZM367 295Q367 312 363 332T348 371T317 401T266 414Q237 414 217 403T183 374T162 335T153 295H367ZM247 698L334 550H249L127 698H247Z"  />
<glyph unicode="&#xE9;" horiz-adv-x="516" d="M153 209Q154 176 166 152T199 113T247 91T303 83Q346 83 378 88T438 105L456 20Q424 7 382 -1T286 -10Q227 -10 180 7T101 57T52 134T35 236Q35 287 50 334T95 417T169 476T273 498Q332 498 372 476T437 420T472 343T483 261Q483 244 482 231T479 209H153ZM367 295Q367 312 363 332T348 371T317 401T266 414Q237 414 217 403T183 374T162 335T153 295H367ZM423 698L300 550H215L302 698H423Z"  />
<glyph unicode="&#xEA;" horiz-adv-x="516" d="M153 209Q154 176 166 152T199 113T247 91T303 83Q346 83 378 88T438 105L456 20Q424 7 382 -1T286 -10Q227 -10 180 7T101 57T52 134T35 236Q35 287 50 334T95 417T169 476T273 498Q332 498 372 476T437 420T472 343T483 261Q483 244 482 231T479 209H153ZM367 295Q367 312 363 332T348 371T317 401T266 414Q237 414 217 403T183 374T162 335T153 295H367ZM311 698L409 550H324L270 641H268L214 550H130L227 698H311Z"  />
<glyph unicode="&#xEB;" horiz-adv-x="516" d="M153 209Q154 176 166 152T199 113T247 91T303 83Q346 83 378 88T438 105L456 20Q424 7 382 -1T286 -10Q227 -10 180 7T101 57T52 134T35 236Q35 287 50 334T95 417T169 476T273 498Q332 498 372 476T437 420T472 343T483 261Q483 244 482 231T479 209H153ZM367 295Q367 312 363 332T348 371T317 401T266 414Q237 414 217 403T183 374T162 335T153 295H367ZM176 563Q149 563 132 581T114 624Q114 650 132 668T177 686Q202 686 219 669T236 624Q236 599 219 581T176 563ZM375 563Q348 563 331 581T314 624Q314 650 331 668T375 686Q401 686 418 669T435 624Q435 599 418 581T375 563Z"  />
<glyph unicode="&#xEC;" horiz-adv-x="256" d="M66 0V487H190V0H66ZM92 698L179 550H93L-29 698H92Z"  />
<glyph unicode="&#xED;" horiz-adv-x="256" d="M66 0V487H190V0H66ZM278 698L155 550H70L157 698H278Z"  />
<glyph unicode="&#xEE;" horiz-adv-x="256" d="M66 0V487H190V0H66ZM170 698L268 550H183L129 641H127L73 550H-11L86 698H170Z"  />
<glyph unicode="&#xEF;" horiz-adv-x="256" d="M66 0V487H190V0H66ZM29 563Q2 563 -15 581T-33 624Q-33 650 -15 668T30 686Q55 686 72 669T89 624Q89 599 72 581T29 563ZM228 563Q201 563 184 581T167 624Q167 650 184 668T228 686Q254 686 271 669T288 624Q288 599 271 581T228 563Z"  />
<glyph unicode="&#xF0;" horiz-adv-x="560" d="M278 78Q335 78 365 124T396 242Q396 285 390 313T368 361Q354 378 333 389T281 400Q248 400 226 385T189 345T168 293T162 238Q162 205 170 176T193 125T229 91T278 78ZM88 544L198 594Q154 624 99 647L153 719Q191 704 229 683T303 639L436 699L462 647L357 599Q437 534 481 445Q523 362 523 255Q523 186 502 136T447 53T368 5T278 -11Q226 -11 182 6T105 56T54 134T35 237Q35 294 54 338T105 414T179 461T267 478Q289 478 310 473T353 448L355 451Q335 480 311 506T254 555L111 491L88 544Z"  />
<glyph unicode="&#xF1;" horiz-adv-x="572" d="M66 342Q66 384 65 419T62 487H170L176 414H179Q187 428 200 443T233 470T278 490T334 498Q366 498 397 487T452 451T492 387T507 289V0H384V275Q384 301 379 323T363 362T334 388T291 398Q254 398 230 376T195 326Q192 318 191 308T190 286V0H66V342ZM152 562Q150 619 171 650T228 681Q246 681 261 675T292 660Q304 653 314 648T334 642Q346 642 352 650T361 685H420Q422 625 403 597T345 569Q326 569 311 575T279 590Q265 598 257 602T239 607Q216 607 214 562H152Z"  />
<glyph unicode="&#xF2;" horiz-adv-x="564" d="M287 498Q341 498 386 480T462 428T511 349T529 248Q529 181 508 132T451 52T370 5T279 -11Q227 -11 183 6T105 56T54 134T35 240Q35 300 53 348T105 429T185 480T287 498ZM284 408Q251 408 228 394T191 356T169 303T162 243Q162 208 170 178T194 125T232 91T283 78Q309 78 331 90T368 125T393 177T402 245Q402 273 396 302T375 355T338 393T284 408ZM259 698L346 550H260L138 698H259Z"  />
<glyph unicode="&#xF3;" horiz-adv-x="564" d="M287 498Q341 498 386 480T462 428T511 349T529 248Q529 181 508 132T451 52T370 5T279 -11Q227 -11 183 6T105 56T54 134T35 240Q35 300 53 348T105 429T185 480T287 498ZM284 408Q251 408 228 394T191 356T169 303T162 243Q162 208 170 178T194 125T232 91T283 78Q309 78 331 90T368 125T393 177T402 245Q402 273 396 302T375 355T338 393T284 408ZM429 698L306 550H221L308 698H429Z"  />
<glyph unicode="&#xF4;" horiz-adv-x="564" d="M287 498Q341 498 386 480T462 428T511 349T529 248Q529 181 508 132T451 52T370 5T279 -11Q227 -11 183 6T105 56T54 134T35 240Q35 300 53 348T105 429T185 480T287 498ZM284 408Q251 408 228 394T191 356T169 303T162 243Q162 208 170 178T194 125T232 91T283 78Q309 78 331 90T368 125T393 177T402 245Q402 273 396 302T375 355T338 393T284 408ZM324 698L421 550H337L283 641H281L227 550H143L240 698H324Z"  />
<glyph unicode="&#xF5;" horiz-adv-x="564" d="M287 498Q341 498 386 480T462 428T511 349T529 248Q529 181 508 132T451 52T370 5T279 -11Q227 -11 183 6T105 56T54 134T35 240Q35 300 53 348T105 429T185 480T287 498ZM284 408Q251 408 228 394T191 356T169 303T162 243Q162 208 170 178T194 125T232 91T283 78Q309 78 331 90T368 125T393 177T402 245Q402 273 396 302T375 355T338 393T284 408ZM148 562Q146 619 167 650T224 681Q242 681 257 675T288 660Q300 653 310 648T330 642Q342 642 348 650T357 685H416Q418 625 399 597T341 569Q322 569 307 575T275 590Q261 598 253 602T235 607Q212 607 210 562H148Z"  />
<glyph unicode="&#xF6;" horiz-adv-x="564" d="M287 498Q341 498 386 480T462 428T511 349T529 248Q529 181 508 132T451 52T370 5T279 -11Q227 -11 183 6T105 56T54 134T35 240Q35 300 53 348T105 429T185 480T287 498ZM284 408Q251 408 228 394T191 356T169 303T162 243Q162 208 170 178T194 125T232 91T283 78Q309 78 331 90T368 125T393 177T402 245Q402 273 396 302T375 355T338 393T284 408ZM183 563Q156 563 139 581T121 624Q121 650 139 668T184 686Q209 686 226 669T243 624Q243 599 226 581T183 563ZM382 563Q355 563 338 581T321 624Q321 650 338 668T382 686Q408 686 425 669T442 624Q442 599 425 581T382 563Z"  />
<glyph unicode="&#xF7;" horiz-adv-x="596" d="M298 377Q269 377 252 395T234 442Q234 472 251 490T298 508Q327 508 344 490T362 442Q362 413 345 395T298 377ZM40 228V306H556V228H40ZM298 26Q269 26 252 44T234 91Q234 121 251 139T298 157Q327 157 344 139T362 91Q362 62 345 44T298 26Z"  />
<glyph unicode="&#xF8;" horiz-adv-x="564" d="M283 498Q350 498 404 468L448 533L495 500L451 435Q489 401 509 354T529 246Q529 180 508 132T452 52T373 5T283 -11Q250 -11 220 -4T163 18L117 -48L72 -12L116 51Q78 83 57 131T35 242Q35 301 53 348T105 429T183 480T283 498ZM349 385Q323 408 281 408Q247 408 223 393T184 355T161 302T154 243Q154 217 160 192T180 145H182L349 385ZM217 101Q243 78 281 78Q341 78 375 124T410 243Q410 263 405 289T386 338H383L217 101Z"  />
<glyph unicode="&#xF9;" horiz-adv-x="569" d="M502 146Q502 102 503 66T506 0H398L392 74H390Q382 61 369 46T337 19T293 -2T234 -11Q201 -11 170 0T116 35T78 100T64 201V487H187V222Q187 161 208 125T278 89Q315 89 338 110T372 155Q379 174 379 193V487H502V146ZM256 698L343 550H258L136 698H256Z"  />
<glyph unicode="&#xFA;" horiz-adv-x="569" d="M502 146Q502 102 503 66T506 0H398L392 74H390Q382 61 369 46T337 19T293 -2T234 -11Q201 -11 170 0T116 35T78 100T64 201V487H187V222Q187 161 208 125T278 89Q315 89 338 110T372 155Q379 174 379 193V487H502V146ZM439 698L316 550H231L318 698H439Z"  />
<glyph unicode="&#xFB;" horiz-adv-x="569" d="M502 146Q502 102 503 66T506 0H398L392 74H390Q382 61 369 46T337 19T293 -2T234 -11Q201 -11 170 0T116 35T78 100T64 201V487H187V222Q187 161 208 125T278 89Q315 89 338 110T372 155Q379 174 379 193V487H502V146ZM326 698L424 550H339L285 641H283L230 550H145L242 698H326Z"  />
<glyph unicode="&#xFC;" horiz-adv-x="569" d="M502 146Q502 102 503 66T506 0H398L392 74H390Q382 61 369 46T337 19T293 -2T234 -11Q201 -11 170 0T116 35T78 100T64 201V487H187V222Q187 161 208 125T278 89Q315 89 338 110T372 155Q379 174 379 193V487H502V146ZM188 563Q161 563 144 581T126 624Q126 650 144 668T189 686Q214 686 231 669T248 624Q248 599 231 581T188 563ZM387 563Q360 563 343 581T326 624Q326 650 343 668T387 686Q413 686 430 669T447 624Q447 599 430 581T387 563Z"  />
<glyph unicode="&#xFD;" horiz-adv-x="500" d="M143 487L231 226Q239 203 246 178T258 131H261Q267 152 273 177T287 227L363 487H495L373 155Q348 87 327 37T285 -51T245 -113T203 -158Q167 -190 132 -204T74 -221L46 -117Q62 -113 80 -105T118 -83Q135 -72 153 -52T185 -6Q193 8 193 16Q193 20 192 25T186 40L8 487H143ZM413 698L290 550H205L292 698H413Z"  />
<glyph unicode="&#xFE;" horiz-adv-x="585" d="M189 710V419H191Q214 455 252 476T345 498Q386 499 423 482T488 433T533 354T550 249Q550 181 530 132T479 52T408 5T329 -11Q283 -11 248 7T191 55H189V-198H66V710H189ZM189 196Q189 185 192 173T201 150Q214 120 241 102T302 84Q358 84 391 128T425 247Q425 279 417 307T394 356T356 389T306 401Q271 401 242 382T199 327Q195 318 192 306T189 282V196Z"  />
<glyph unicode="&#xFF;" horiz-adv-x="500" d="M143 487L231 226Q239 203 246 178T258 131H261Q267 152 273 177T287 227L363 487H495L373 155Q348 87 327 37T285 -51T245 -113T203 -158Q167 -190 132 -204T74 -221L46 -117Q62 -113 80 -105T118 -83Q135 -72 153 -52T185 -6Q193 8 193 16Q193 20 192 25T186 40L8 487H143ZM163 563Q136 563 118 581T100 624Q100 650 118 668T163 686Q188 686 205 669T222 624Q222 599 206 581T163 563ZM361 563Q334 563 317 581T300 624Q300 650 317 668T362 686Q388 686 405 669T422 624Q422 599 405 581T361 563Z"  />
<glyph unicode="&#x152;" horiz-adv-x="917" d="M879 0H515Q501 0 485 -2T451 -6Q433 -8 413 -9T368 -11Q285 -11 223 16T120 90T57 199T36 332Q36 414 60 479T129 590T235 660T372 685Q399 685 421 684T461 680Q480 678 495 676T525 674H864V573H595V399H849V299H595V101H879V0ZM472 572Q438 586 381 586Q334 586 294 569T226 520T182 441T166 336Q166 281 180 236T224 157T294 106T390 88Q413 88 435 91T472 100V572Z"  />
<glyph unicode="&#x153;" horiz-adv-x="866" d="M512 211Q514 149 555 116T658 82Q703 82 733 90T791 109L810 24Q792 14 771 8T727 -3T682 -9T641 -11Q583 -11 535 11T456 88H453Q424 37 374 13T268 -11Q219 -11 177 6T103 56T53 136T35 242Q35 300 53 347T103 428T180 480T276 498Q333 498 381 473T453 398H455Q484 448 529 473T629 498Q687 498 726 476T790 419T824 343T834 262Q834 246 833 233T830 211H512ZM281 408Q247 408 225 393T188 354T168 301T162 243Q162 208 170 178T194 126T231 91T280 78Q335 78 366 123T397 244Q397 275 391 304T370 357T333 394T281 408ZM718 296Q718 312 715 332T700 371T669 401T618 414Q591 414 571 403T538 374T519 335T511 296H718Z"  />
<glyph unicode="&#x160;" horiz-adv-x="519" d="M68 134Q98 117 140 104T231 91Q291 91 322 116T354 183Q354 221 327 246T234 295Q150 325 101 371T52 491Q52 532 68 567T116 629T191 670T290 685Q345 685 385 675T452 651L422 552Q404 562 370 573T288 584Q259 584 238 577T203 559T183 533T176 503Q176 464 206 441T305 392Q393 359 436 312T479 192Q479 151 464 115T417 51T337 7T223 -10Q169 -10 119 2T41 32L68 134ZM223 712L121 830H213L269 765H271L327 830H418L316 712H223Z"  />
<glyph unicode="&#x161;" horiz-adv-x="417" d="M60 113Q81 100 116 89T185 78Q226 78 244 93T263 132Q263 157 246 172T183 203Q111 228 80 265T49 345Q49 377 62 405T99 453T157 486T233 498Q274 498 307 489T362 469L338 382Q322 391 295 400T235 410Q202 410 185 396T167 359Q167 336 186 322T252 291Q318 267 349 232T382 142Q382 76 332 33T184 -10Q139 -10 101 -1T36 24L60 113ZM170 550L72 698H157L211 607H213L268 698H352L255 550H170Z"  />
<glyph unicode="&#x178;" horiz-adv-x="575" d="M224 0V281L11 674H151L232 501Q249 463 262 433T290 367H292Q305 399 319 431T351 501L432 674H571L347 284V0H224ZM198 712Q172 712 155 730T138 773Q138 799 155 816T199 833Q223 833 239 816T256 773Q256 748 240 730T198 712ZM396 712Q369 712 353 730T336 773Q336 799 353 816T396 833Q422 833 438 816T454 773Q454 748 438 730T396 712Z"  />
<glyph unicode="&#x17D;" horiz-adv-x="566" d="M26 68L371 569V572H57V674H531V602L191 106V102H536V0H26V68ZM245 710L142 829H234L291 763H293L349 829H439L338 710H245Z"  />
<glyph unicode="&#x17E;" horiz-adv-x="450" d="M20 71L203 305Q222 328 238 347T275 387V389H38V487H425V412L246 183Q228 161 211 141T174 100V98H431V0H20V71ZM192 550L94 698H179L233 607H235L290 698H374L277 550H192Z"  />
<glyph unicode="&#x192;" horiz-adv-x="536" d="M113 407H207L212 446Q215 476 225 513T259 584T320 639T417 661Q467 659 493 645L473 557Q462 562 450 564T423 567Q379 567 358 535T332 455L326 407H436V320H315L292 130Q286 83 275 43T242 -26T188 -71T105 -88Q76 -87 54 -83T20 -71L39 16Q62 6 90 6Q111 6 125 14T150 39T166 85T178 155L197 320H113V407Z"  />
<glyph unicode="&#x2C6;" horiz-adv-x="300" d="M192 698L289 550H205L151 641H149L95 550H11L108 698H192Z"  />
<glyph unicode="&#x2DC;" horiz-adv-x="300" d="M16 562Q14 619 35 650T92 681Q110 681 125 675T156 660Q168 653 178 648T198 642Q210 642 216 650T225 685H284Q286 625 267 597T209 569Q190 569 175 575T143 590Q129 598 121 602T103 607Q80 607 78 562H16Z"  />
<glyph unicode="&#x2013;" horiz-adv-x="500" d="M470 293V215H30V293H470Z"  />
<glyph unicode="&#x2014;" horiz-adv-x="1000" d="M970 293V215H30V293H970Z"  />
<glyph unicode="&#x2018;" horiz-adv-x="236" d="M30 422Q40 456 53 491T80 561T109 625T138 678L214 685Q194 630 177 561T149 431L30 422Z"  />
<glyph unicode="&#x2019;" horiz-adv-x="236" d="M213 685Q203 651 190 616T163 546T134 482T105 429L30 422Q40 449 49 481T67 546T82 612T94 676L213 685Z"  />
<glyph unicode="&#x201A;" horiz-adv-x="236" d="M18 -110Q28 -83 38 -51T56 14T71 80T83 143L202 153Q192 119 179 84T152 14T123 -50T94 -103L18 -110Z"  />
<glyph unicode="&#x201C;" horiz-adv-x="409" d="M30 422Q40 456 53 491T80 561T109 625T138 678L213 685Q193 630 176 561T148 431L30 422ZM204 422Q214 456 227 491T254 561T283 625T312 678L388 685Q378 658 368 626T350 561T334 495T323 431L204 422Z"  />
<glyph unicode="&#x201D;" horiz-adv-x="409" d="M213 685Q202 651 190 616T163 546T134 482T105 429L29 422Q49 477 66 546T94 676L213 685ZM387 685Q377 651 364 616T337 546T308 482T279 429L203 422Q213 449 222 481T240 546T256 612T268 676L387 685Z"  />
<glyph unicode="&#x201E;" horiz-adv-x="412" d="M17 -110Q27 -83 37 -51T55 14T70 80T82 143L201 153Q191 119 178 84T151 14T122 -50T93 -103L17 -110ZM192 -110Q202 -83 211 -51T229 14T245 80T257 143L376 153Q365 119 352 84T325 14T296 -50T267 -103L192 -110Z"  />
<glyph unicode="&#x2020;" horiz-adv-x="513" d="M313 674L302 469L475 478V381L302 391L313 -50H201L212 391L39 381V478L212 469L201 674H313Z"  />
<glyph unicode="&#x2021;" horiz-adv-x="513" d="M312 674L304 482L475 492V394L304 405V226L475 236V139L304 148L312 -50H201L209 148L38 139V236L210 226V405L38 394V492L210 482L201 674H312Z"  />
<glyph unicode="&#x2022;" horiz-adv-x="313" d="M156 142Q132 142 111 151T73 176T48 213T38 261Q37 286 46 308T72 346T110 371T156 380Q181 380 202 371T240 346T265 308T275 261Q275 236 266 215T241 177T203 152T156 142Z"  />
<glyph unicode="&#x2026;" horiz-adv-x="1000" d="M166 -11Q133 -11 112 11T91 68Q91 103 112 125T167 147Q201 147 221 125T243 68Q243 34 222 12T166 -11ZM500 -11Q466 -11 445 11T424 68Q424 103 445 125T500 147Q534 147 555 125T576 68Q576 34 556 12T500 -11ZM834 -11Q800 -11 779 11T758 68Q758 103 779 125T834 147Q868 147 888 125T910 68Q910 34 890 12T834 -11Z"  />
<glyph unicode="&#x2030;" horiz-adv-x="1227" d="M647 392Q725 392 768 339T811 198Q811 147 797 109T760 44T707 5T642 -8Q608 -8 578 5T526 43T490 104T477 188Q477 234 489 271T524 336T578 377T647 392ZM645 322Q626 322 612 312T589 284T575 242T570 191Q569 135 588 98T645 61Q683 61 700 96T718 192Q718 219 714 243T702 284T679 312T645 322ZM1033 392Q1111 392 1154 339T1198 198Q1198 147 1184 109T1147 44T1093 5T1028 -8Q994 -8 964 5T912 43T876 104T863 188Q863 234 875 271T910 336T964 377T1033 392ZM1031 322Q1012 322 998 312T975 284T961 242T956 191Q955 135 974 98T1031 61Q1069 61 1086 96T1104 192Q1104 219 1100 243T1088 284T1065 312T1031 322ZM199 661Q277 661 320 609T363 468Q363 417 349 378T312 314T258 275T194 262Q160 262 130 275T78 312T42 373T28 457Q28 503 40 540T76 605T130 646T199 661ZM197 592Q178 592 164 582T141 554T127 512T122 461Q121 404 140 368T197 331Q234 331 252 366T270 462Q270 489 266 512T254 554T231 582T197 592ZM196 -11L573 661H643L266 -11H196Z"  />
<glyph unicode="&#x2039;" horiz-adv-x="264" d="M115 252L241 64H151L27 252L150 440H241L115 252Z"  />
<glyph unicode="&#x203A;" horiz-adv-x="264" d="M23 440H112L236 252L112 64H23L148 252L23 440Z"  />
<glyph unicode="&#x20AC;" horiz-adv-x="536" d="M513 29Q488 14 448 2T360 -11Q291 -11 233 15T134 92Q84 149 71 241H7V302H63V318Q63 327 63 336T65 354H7V416H74Q83 462 102 500T149 567Q190 612 244 636T365 661Q410 661 446 652T508 630L483 537Q463 548 434 556T371 564Q333 564 301 551T244 509Q228 492 217 469T200 416H462V354H188Q186 346 186 337T186 319V302H462V241H197Q207 179 240 143Q266 115 300 102T374 89Q411 89 443 99T492 119L513 29Z"  />
<glyph unicode="&#x2122;" horiz-adv-x="636" d="M262 674V617H180V401H110V617H28V674H262ZM556 401L548 539Q548 559 548 582T547 632H543Q538 609 532 584T520 537L482 406H414L379 539Q375 557 370 583T360 632H356Q356 608 356 585T354 539L346 401H280L298 674H405L436 577Q441 562 444 545T453 498H455Q463 539 473 577L506 674H607L624 401H556Z"  />


</font>
</defs>
</svg>
